<?xml version="1.0" standalone="no"?><svg xmlns="http://www.w3.org/2000/svg" viewBox="0 0 1440 320"><path fill="#e7008a" fill-opacity="0.9" d="M0,192L18.5,213.3C36.9,235,74,277,111,298.7C147.7,320,185,320,222,293.3C258.5,267,295,213,332,197.3C369.2,181,406,203,443,218.7C480,235,517,245,554,245.3C590.8,245,628,235,665,245.3C701.5,256,738,288,775,261.3C812.3,235,849,149,886,106.7C923.1,64,960,64,997,101.3C1033.8,139,1071,213,1108,234.7C1144.6,256,1182,224,1218,202.7C1255.4,181,1292,171,1329,149.3C1366.2,128,1403,96,1422,80L1440,64L1440,320L1421.5,320C1403.1,320,1366,320,1329,320C1292.3,320,1255,320,1218,320C1181.5,320,1145,320,1108,320C1070.8,320,1034,320,997,320C960,320,923,320,886,320C849.2,320,812,320,775,320C738.5,320,702,320,665,320C627.7,320,591,320,554,320C516.9,320,480,320,443,320C406.2,320,369,320,332,320C295.4,320,258,320,222,320C184.6,320,148,320,111,320C73.8,320,37,320,18,320L0,320Z"></path></svg>